<svg width="512" height="512" viewBox="0 0 512 512" fill="none" xmlns="http://www.w3.org/2000/svg">
  <defs>
    <filter id="glow" x="-20%" y="-20%" width="140%" height="140%">
      <feGaussianBlur stdDeviation="5" result="blur" />
      <feComposite in="SourceGraphic" in2="blur" operator="over" />
    </filter>
    
    <radialGradient id="hubGrad" cx="50%" cy="50%" r="50%" fx="35%" fy="35%">
      <stop offset="0%" stop-color="#3B8CE3" />
      <stop offset="100%" stop-color="#1B59B0" />
    </radialGradient>
  </defs>

  <circle cx="256" cy="256" r="245" fill="#101929"/>
  
  <circle cx="256" cy="256" r="185" stroke="#1D2E45" stroke-width="1.5"/>
  <circle cx="256" cy="256" r="135" stroke="#1D2E45" stroke-width="1"/>

  <g stroke="#3273C2" stroke-width="6" stroke-linecap="round">
    <line x1="256" y1="256" x2="256" y2="78" />
    <line x1="256" y1="256" x2="256" y2="434" />
    <line x1="256" y1="256" x2="78" y2="256" />
    <line x1="256" y1="256" x2="434" y2="256" />
    <line x1="256" y1="256" x2="130" y2="130" />
    <line x1="256" y1="256" x2="382" y2="382" />
    <line x1="256" y1="256" x2="130" y2="382" />
    <line x1="256" y1="256" x2="382" y2="130" />
  </g>

  <circle cx="256" cy="256" r="86" fill="url(#hubGrad)"/>
  <path d="M215 215C225 200 245 195 260 200" stroke="#B8D9FF" stroke-width="7" stroke-linecap="round" opacity="0.3"/>

  <g filter="url(#glow)">
    <g fill="#16408F" stroke="#4B9DFF" stroke-width="3.5">
      <circle cx="256" cy="78" r="23"/>
      <circle cx="256" cy="434" r="23"/>
      <circle cx="78" cy="256" r="23"/>
      <circle cx="434" cy="256" r="23"/>
      <circle cx="130" cy="130" r="23"/>
      <circle cx="382" cy="382" r="23"/>
      <circle cx="130" cy="382" r="23"/>
      <circle cx="382" cy="130" r="23"/>
    </g>
    <g fill="#C2E0FF">
      <circle cx="256" cy="78" r="7.5"/>
      <circle cx="256" cy="434" r="7.5"/>
      <circle cx="78" cy="256" r="7.5"/>
      <circle cx="434" cy="256" r="7.5"/>
      <circle cx="130" cy="130" r="7.5"/>
      <circle cx="382" cy="382" r="7.5"/>
      <circle cx="130" cy="382" r="7.5"/>
      <circle cx="382" cy="130" r="7.5"/>
    </g>
  </g>
</svg>
